<?xml version="1.0" standalone="no"?>
<!DOCTYPE svg PUBLIC "-//W3C//DTD SVG 20010904//EN"
 "http://www.w3.org/TR/2001/REC-SVG-20010904/DTD/svg10.dtd">
<svg version="1.0" xmlns="http://www.w3.org/2000/svg"
 width="1275.000000pt" height="1651.000000pt" viewBox="0 0 1275.000000 1651.000000"
 preserveAspectRatio="xMidYMid meet">
<metadata>
Created by potrace 1.16, written by Peter Selinger 2001-2019
</metadata>
<g transform="translate(0.000000,1651.000000) scale(0.100000,-0.100000)"
fill="#000000" stroke="none">
<path d="M1450 15235 c0 -43 4 -75 10 -75 6 0 10 17 10 39 0 39 20 68 40 56 5
-3 10 -26 10 -51 0 -24 5 -44 10 -44 12 0 13 80 1 99 -5 8 -19 12 -35 9 -22
-4 -26 -2 -26 18 0 13 -4 24 -10 24 -6 0 -10 -32 -10 -75z"/>
<path d="M1205 15290 c-3 -5 3 -10 14 -10 18 0 21 -6 21 -49 0 -42 -3 -50 -22
-56 -22 -8 -22 -8 5 -12 15 -2 37 -2 50 0 l22 4 -22 8 c-20 6 -23 14 -23 56 0
43 3 49 21 49 11 0 17 5 14 10 -3 6 -21 10 -40 10 -19 0 -37 -4 -40 -10z"/>
<path d="M1337 15264 c-18 -18 -5 -43 28 -54 19 -6 35 -16 35 -21 0 -17 -32
-23 -52 -10 -16 10 -19 10 -16 -1 3 -7 19 -13 39 -13 28 0 35 4 37 23 3 18 -3
25 -27 33 -17 6 -31 17 -31 25 0 17 31 18 49 2 11 -11 13 -10 9 2 -5 16 -59
26 -71 14z"/>
<path d="M1585 15259 c-4 -6 -4 -13 0 -17 3 -3 10 0 15 7 8 14 40 9 40 -7 0
-4 -15 -12 -32 -17 -26 -8 -33 -15 -33 -35 0 -24 3 -25 55 -26 30 -1 49 1 43
3 -7 3 -13 20 -13 38 0 18 -3 40 -6 49 -7 18 -59 22 -69 5z m55 -58 c0 -14
-28 -33 -40 -26 -20 12 -10 35 15 35 14 0 25 -4 25 -9z"/>
<path d="M1730 15175 c0 -8 7 -15 15 -15 8 0 15 7 15 15 0 8 -7 15 -15 15 -8
0 -15 -7 -15 -15z"/>
</g>
</svg>
